<svg 
 xmlns="http://www.w3.org/2000/svg"
 xmlns:xlink="http://www.w3.org/1999/xlink"
 width="2508.5px" height="290.5px">
<path fill-rule="evenodd"  stroke="rgb(0, 158, 219)" stroke-width="1px" stroke-linecap="butt" stroke-linejoin="miter" fill="none"
 d="M2.727,137.053 C10.944,154.186 25.434,164.110 42.267,171.292 C62.399,179.882 83.697,183.630 105.290,185.740 C155.699,190.667 205.815,186.537 255.918,180.819 C315.921,173.971 374.094,158.378 432.614,144.509 C555.947,115.279 679.137,85.433 803.056,58.750 C882.119,41.725 961.571,26.668 1041.650,15.187 C1090.555,8.176 1139.645,3.031 1189.111,1.780 C1235.403,0.611 1281.448,2.638 1326.944,11.586 C1345.423,15.221 1363.001,21.861 1379.397,31.499 C1408.881,48.831 1423.581,85.964 1410.471,119.318 C1404.091,135.549 1397.223,151.592 1391.044,167.897 C1387.725,176.650 1386.499,185.883 1387.653,195.341 C1389.877,213.584 1400.259,224.970 1417.371,230.462 C1437.273,236.850 1457.776,236.530 1478.339,235.399 C1525.867,232.783 1571.629,220.821 1617.520,209.449 C1686.981,192.237 1756.600,175.674 1827.177,163.609 C1869.861,156.312 1912.829,150.910 1955.842,145.885 C2007.656,139.830 2059.647,138.238 2111.762,138.649 C2172.264,139.125 2232.417,143.514 2292.293,152.426 C2343.052,159.981 2393.974,166.116 2445.508,164.333 C2468.968,163.522 2487.929,159.936 2507.500,151.500 C2507.147,153.974 2505.512,155.239 2504.240,156.579 C2456.330,207.057 2397.954,230.362 2328.151,225.354 C2287.520,222.439 2247.577,214.854 2207.324,209.377 C2178.883,205.507 2150.285,203.291 2121.698,201.038 C2075.658,197.409 2029.554,194.852 1983.340,195.583 C1939.986,196.270 1896.861,199.926 1853.916,205.918 C1750.675,220.321 1649.661,244.703 1549.472,272.989 C1511.147,283.809 1472.014,290.316 1431.983,289.429 C1416.385,289.083 1400.973,287.154 1386.072,282.032 C1350.818,269.913 1334.253,240.789 1341.857,204.168 C1344.845,189.781 1350.307,176.239 1355.734,162.687 C1360.601,150.526 1364.090,138.055 1361.586,124.937 C1358.069,106.513 1346.751,94.061 1329.658,86.976 C1312.519,79.874 1294.343,76.740 1276.082,74.174 C1219.317,66.199 1162.437,67.427 1105.461,71.650 C1025.170,77.601 946.128,91.548 867.422,107.809 C738.390,134.469 611.038,168.015 483.593,201.191 C440.261,212.470 396.983,224.076 353.081,232.968 C316.726,240.331 279.898,244.256 242.815,245.789 C199.159,247.594 155.803,245.798 113.279,234.822 C84.266,227.333 57.222,215.666 35.026,194.798 C18.451,179.213 7.058,160.488 1.645,138.280 C1.200,137.163 1.680,136.858 2.727,137.053 Z"/>
</svg>